<svg width="50" height="47" viewBox="0 0 50 47" fill="none" xmlns="http://www.w3.org/2000/svg">
<path d="M9.16052 46.0531L12.2143 29.659L0.0966797 17.912L17.0295 15.6782L24.7417 0.810242L32.1529 15.8233L49.037 18.3812L36.6849 29.8935L39.4078 46.343L24.3628 38.4448L9.16052 46.0531Z" fill="#CEA474" stroke="black" stroke-width="0.0890269"/>
<path d="M24.7418 0.809631L24.3625 38.4445" stroke="black" stroke-width="0.101688"/>
<path d="M0.0964966 17.9117L36.6852 29.8935" stroke="black" stroke-width="0.101688"/>
<path d="M9.16077 46.0511L32.1531 15.8214" stroke="black" stroke-width="0.101688"/>
<path d="M49.0393 18.381L12.2162 29.6591" stroke="black" stroke-width="0.101688"/>
<path d="M39.4078 46.3432L17.0293 15.6783" stroke="black" stroke-width="0.101688"/>
<path d="M24.5697 24.2412C24.5819 23.4385 24.6378 18.0917 24.6938 12.36C24.7498 6.62768 24.7994 1.74878 24.8039 1.51693L24.8122 1.09668L28.4327 8.43654C30.424 12.4735 32.0572 15.7848 32.0619 15.7951C32.0683 15.8091 26.5421 23.096 24.7709 25.4088L24.5474 25.7007L24.5697 24.2412Z" fill="#3D1D10" stroke="#3D1D10" stroke-width="0.0343402"/>
<path d="M30.6619 27.8522L24.7321 25.9065L24.9098 25.847C25.2338 25.7386 48.7446 18.5429 48.7507 18.5504C48.7686 18.573 36.6955 29.7879 36.6487 29.792C36.6173 29.795 33.9233 28.9219 30.6619 27.8518L30.6619 27.8522Z" fill="#3D1D10" stroke="#3D1D10" stroke-width="0.0343402"/>
<path d="M31.7835 42.2685C27.7605 40.1546 24.46 38.4209 24.449 38.4157C24.4301 38.4067 24.5409 26.4764 24.5621 26.2426C24.571 26.1434 25.3033 27.1343 31.7664 35.9912C35.7233 41.4136 39.0046 45.91 39.058 45.983C39.1116 46.056 39.1425 46.1149 39.1267 46.1139C39.1109 46.1129 35.8065 44.3826 31.7835 42.2687L31.7835 42.2685Z" fill="#3D1D10" stroke="#3D1D10" stroke-width="0.0343402"/>
<path d="M9.30735 45.6608C9.30735 45.6061 12.2604 29.7222 12.2722 29.7141C12.2918 29.6999 24.2643 26.0394 24.2724 26.0452C24.2833 26.0529 9.43507 45.5866 9.35575 45.668C9.31321 45.712 9.30719 45.7111 9.30719 45.6608L9.30735 45.6608Z" fill="#3D1D10" stroke="#3D1D10" stroke-width="0.0343402"/>
<path d="M12.3224 21.8444C5.77406 19.6984 0.419763 17.9396 0.42383 17.9357C0.446792 17.9139 16.9411 15.7552 16.9777 15.7692C17.0126 15.7826 24.1496 25.5255 24.2565 25.7057C24.2716 25.7312 24.2716 25.7507 24.2565 25.7491C24.2414 25.7475 18.8713 23.9904 12.3234 21.8444L12.3224 21.8444Z" fill="#3D1D10" stroke="#3D1D10" stroke-width="0.0343402"/>
</svg>
