<svg width="51" height="47" viewBox="0 0 51 47" fill="none" xmlns="http://www.w3.org/2000/svg">
<path d="M10.064 46.2435L13.1178 29.8494L1.00018 18.1024L17.933 15.8686L25.6452 1.00061L33.0564 16.0136L49.9405 18.5716L37.5884 30.0838L40.3113 46.5334L25.2663 38.6352L10.064 46.2435Z" fill="#777777" stroke="black" stroke-width="0.0890269"/>
<path d="M25.6453 1L25.266 38.6348" stroke="black" stroke-width="0.101688"/>
<path d="M1 18.1021L37.5887 30.0839" stroke="black" stroke-width="0.101688"/>
<path d="M10.0643 46.2415L33.0566 16.0117" stroke="black" stroke-width="0.101688"/>
<path d="M49.9429 18.5714L13.1198 29.8494" stroke="black" stroke-width="0.101688"/>
<path d="M40.3113 46.5336L17.9328 15.8687" stroke="black" stroke-width="0.101688"/>
<path d="M25.4732 24.4316C25.4854 23.6289 25.5413 18.2821 25.5973 12.5503C25.6533 6.81805 25.7029 1.93915 25.7074 1.7073L25.7157 1.28705L29.3362 8.62691C31.3275 12.6638 32.9607 15.9752 32.9654 15.9855C32.9718 15.9995 27.4456 23.2864 25.6744 25.5992L25.4509 25.8911L25.4732 24.4316Z" fill="#9F9F9F" stroke="#3D1D10" stroke-width="0.0343402"/>
<path d="M31.5654 28.0425L25.6356 26.0968L25.8133 26.0374C26.1373 25.929 49.6481 18.7333 49.6542 18.7407C49.6721 18.7634 37.599 29.9783 37.5522 29.9824C37.5208 29.9854 34.8268 29.1123 31.5654 28.0422L31.5654 28.0425Z" fill="#9F9F9F" stroke="#3D1D10" stroke-width="0.0343402"/>
<path d="M32.687 42.4589C28.664 40.345 25.3635 38.6112 25.3525 38.606C25.3336 38.5971 25.4444 26.6668 25.4656 26.4329C25.4745 26.3338 26.2068 27.3247 32.6699 36.1816C36.6268 41.604 39.9081 46.1004 39.9615 46.1734C40.0151 46.2464 40.046 46.3053 40.0302 46.3043C40.0144 46.3033 36.71 44.5729 32.687 42.459L32.687 42.4589Z" fill="#9F9F9F" stroke="#3D1D10" stroke-width="0.0343402"/>
<path d="M10.2109 45.8512C10.2109 45.7964 13.1639 29.9126 13.1757 29.9045C13.1953 29.8903 25.1678 26.2297 25.1759 26.2355C25.1868 26.2433 10.3386 45.777 10.2593 45.8583C10.2167 45.9024 10.2107 45.9015 10.2107 45.8512L10.2109 45.8512Z" fill="#9F9F9F" stroke="#3D1D10" stroke-width="0.0343402"/>
<path d="M13.2259 22.0348C6.67756 19.8887 1.32327 18.1299 1.32733 18.1261C1.3503 18.1043 17.8446 15.9456 17.8812 15.9596C17.9161 15.973 25.0532 25.7159 25.16 25.8961C25.1751 25.9215 25.1751 25.9411 25.16 25.9394C25.1449 25.9378 19.7748 24.1808 13.2269 22.0347L13.2259 22.0348Z" fill="#9F9F9F" stroke="#3D1D10" stroke-width="0.0343402"/>
</svg>
